<svg xmlns="http://www.w3.org/2000/svg" width="34" height="44" viewBox="0 0 34 44">
    <defs>
        <linearGradient id="a" x1="26.498%" x2="77.256%" y1="11.296%" y2="98.288%">
            <stop offset="0%" stop-color="#C88AFF"/>
            <stop offset="100%" stop-color="#9D2DFF"/>
        </linearGradient>
    </defs>
    <path fill="url(#a)" fill-rule="evenodd" d="M17 46c-3.453 0-6.84.986-9.531 2.64-.445.278-.6.938-.32 1.383.277.446.937.598 1.382.32C10.887 48.897 13.936 48 17.001 48 25.357 48 32 54.302 32 62v3c-.008.527.47 1.013 1 1.013s1.008-.486 1-1.013v-3c0-8.848-7.631-16-17-16zM3.875 51.984a1.013 1.013 0 0 0-.656.375C1.023 55.06 0 58.41 0 62v17c0 .53.525 1.014 1 1.014S2 79.527 2 79V62c0-3.214.898-6.062 2.781-8.374.264-.307.313-.781.117-1.135a1.024 1.024 0 0 0-1.023-.506zM17 52c-6.416 0-12 4.87-12 11v3c-.008.527.47 1.013 1 1.013S7.008 66.527 7 66v-3c0-4.9 4.596-9 10-9s10 4.1 10 9v21c-.008.527.47 1.013 1 1.013.529 0 1.007-.486 1-1.013V63c0-6.131-5.584-11-12-11zm0 6c-3.461 0-6.5 2.627-6.5 6v24c-.008.527.47 1.013 1 1.013s1.008-.486 1-1.014V64c0-2.142 2.05-4 4.5-4 2.449 0 4.5 1.858 4.5 4v6.5c-.008.528.47 1.014 1 1.014.529 0 1.007-.486 1-1.013V64c0-3.373-3.04-6-6.5-6zm0 5.5c-.471 0-1 .506-1 1v14c-.008.527.47 1.013 1 1.013.529 0 1.007-.486 1-1.013v-14c0-.568-.53-1-1-1zm15.89 5.484c-.492.055-.9.522-.89 1.016v9c0 .529.529 1 1 1 .47 0 1-.471 1-1v-9c.011-.567-.546-1.078-1.11-1.016zM6 70c-.47 0-1 .506-1 1v13c-.008.527.47 1.013 1 1.013S7.008 84.527 7 84V71c0-.569-.53-1-1-1zm16.5 4.5c-.471 0-1 .506-1 1V88c-.008.527.47 1.013 1 1.013.529 0 1.007-.486 1-1.013V75.5c0-.569-.53-1-1-1zM17 83c-.471 0-1 .505-1 1v5c0 .529.529 1 1 1 .47 0 1-.471 1-1v-5c0-.569-.53-1-1-1z" transform="translate(0 -46)"/>
</svg>
