<?xml version="1.0" encoding="utf-8"?>
<!-- Generator: Adobe Illustrator 21.0.1, SVG Export Plug-In . SVG Version: 6.00 Build 0)  -->
<svg version="1.1" id="Calque_1" xmlns="http://www.w3.org/2000/svg" xmlns:xlink="http://www.w3.org/1999/xlink" x="0px" y="0px"
	 viewBox="0 0 44 44" style="enable-background:new 0 0 44 44;" xml:space="preserve">
<style type="text/css">
	.st0{fill:url(#SVGID_1_);}
</style>
<linearGradient id="SVGID_1_" gradientUnits="userSpaceOnUse" x1="-274.2671" y1="410.4082" x2="-273.7596" y2="409.5383" gradientTransform="matrix(34.0002 0 0 -44 9339.0449 18063)">
	<stop  offset="0" style="stop-color:#C88AFF"/>
	<stop  offset="1" style="stop-color:#9D2DFF"/>
</linearGradient>
<path class="st0" d="M22,0c-3.5,0-6.8,1-9.5,2.6C12,2.9,11.9,3.6,12.1,4c0.3,0.4,0.9,0.6,1.4,0.3C15.9,2.9,18.9,2,22,2
	c8.4,0,15,6.3,15,14v3c0,0.5,0.5,1,1,1s1-0.5,1-1v-3C39,7.2,31.4,0,22,0z M8.9,6C8.6,6,8.4,6.2,8.2,6.4C6,9.1,5,12.4,5,16v17
	c0,0.5,0.5,1,1,1s1-0.5,1-1V16c0-3.2,0.9-6.1,2.8-8.4c0.3-0.3,0.3-0.8,0.1-1.1C9.7,6.1,9.3,5.9,8.9,6L8.9,6z M22,6
	c-6.4,0-12,4.9-12,11v3c0,0.5,0.5,1,1,1s1-0.5,1-1v-3c0-4.9,4.6-9,10-9s10,4.1,10,9v21c0,0.5,0.5,1,1,1c0.5,0,1-0.5,1-1V17
	C34,10.9,28.4,6,22,6z M22,12c-3.5,0-6.5,2.6-6.5,6v24c0,0.5,0.5,1,1,1c0.5,0,1-0.5,1-1V18c0-2.1,2-4,4.5-4c2.4,0,4.5,1.9,4.5,4v6.5
	c0,0.5,0.5,1,1,1c0.5,0,1-0.5,1-1V18C28.5,14.6,25.5,12,22,12z M22,17.5c-0.5,0-1,0.5-1,1v14c0,0.5,0.5,1,1,1c0.5,0,1-0.5,1-1v-14
	C23,17.9,22.5,17.5,22,17.5z M37.9,23C37.4,23,37,23.5,37,24v9c0,0.5,0.5,1,1,1c0.5,0,1-0.5,1-1v-9C39,23.4,38.5,22.9,37.9,23z
	 M11,24c-0.5,0-1,0.5-1,1v13c0,0.5,0.5,1,1,1s1-0.5,1-1V25C12,24.4,11.5,24,11,24z M27.5,28.5c-0.5,0-1,0.5-1,1V42c0,0.5,0.5,1,1,1
	c0.5,0,1-0.5,1-1V29.5C28.5,28.9,28,28.5,27.5,28.5z M22,37c-0.5,0-1,0.5-1,1v5c0,0.5,0.5,1,1,1c0.5,0,1-0.5,1-1v-5
	C23,37.4,22.5,37,22,37z"/>
</svg>
